<svg height="670" width="720" xmlns="http://www.w3.org/2000/svg">
<rect height="670" fill="#555" width="720"></rect>
<text fill="#7f7" font-family="Courier New" font-size="12" xml:space="preserve">
<tspan x="10" y="26">5 megabytes installed</tspan>
<tspan x="10" y="42"></tspan>
<tspan x="10" y="58">node_modules</tspan>
<tspan x="10" y="74">├─┬ tslint@5.1.0 </tspan>
<tspan x="10" y="90">│ ├─┬ babel-code-frame@6.22.0 </tspan>
<tspan x="10" y="106">│ │ ├─┬ chalk@1.1.3 </tspan>
<tspan x="10" y="122">│ │ │ ├── ansi-styles@2.2.1 </tspan>
<tspan x="10" y="138">│ │ │ ├── escape-string-regexp@1.0.5 </tspan>
<tspan x="10" y="154">│ │ │ ├─┬ has-ansi@2.0.0 </tspan>
<tspan x="10" y="170">│ │ │ │ └── ansi-regex@2.1.1 </tspan>
<tspan x="10" y="186">│ │ │ ├── strip-ansi@3.0.1 </tspan>
<tspan x="10" y="202">│ │ │ └── supports-color@2.0.0 </tspan>
<tspan x="10" y="218">│ │ ├── esutils@2.0.2 </tspan>
<tspan x="10" y="234">│ │ └── js-tokens@3.0.1 </tspan>
<tspan x="10" y="250">│ ├── colors@1.1.2 </tspan>
<tspan x="10" y="266">│ ├── diff@3.2.0 </tspan>
<tspan x="10" y="282">│ ├─┬ findup-sync@0.3.0 </tspan>
<tspan x="10" y="298">│ │ └── glob@5.0.15 </tspan>
<tspan x="10" y="314">│ ├─┬ glob@7.1.1 </tspan>
<tspan x="10" y="330">│ │ ├── fs.realpath@1.0.0 </tspan>
<tspan x="10" y="346">│ │ ├─┬ inflight@1.0.6 </tspan>
<tspan x="10" y="362">│ │ │ └── wrappy@1.0.2 </tspan>
<tspan x="10" y="378">│ │ ├── inherits@2.0.3 </tspan>
<tspan x="10" y="394">│ │ ├─┬ minimatch@3.0.3 </tspan>
<tspan x="10" y="410">│ │ │ └─┬ brace-expansion@1.1.7 </tspan>
<tspan x="10" y="426">│ │ │   ├── balanced-match@0.4.2 </tspan>
<tspan x="10" y="442">│ │ │   └── concat-map@0.0.1 </tspan>
<tspan x="10" y="458">│ │ ├── once@1.4.0 </tspan>
<tspan x="10" y="474">│ │ └── path-is-absolute@1.0.1 </tspan>
<tspan x="10" y="490">│ ├─┬ optimist@0.6.1 </tspan>
<tspan x="10" y="506">│ │ ├── minimist@0.0.10 </tspan>
<tspan x="10" y="522">│ │ └── wordwrap@0.0.3 </tspan>
<tspan x="10" y="538">│ ├─┬ resolve@1.3.3 </tspan>
<tspan x="10" y="554">│ │ └── path-parse@1.0.5 </tspan>
<tspan x="10" y="570">│ ├── semver@5.3.0 </tspan>
<tspan x="10" y="586">│ ├── tsutils@1.7.0 </tspan>
<tspan x="10" y="602">│ └── UNMET PEER DEPENDENCY typescript@&gt;=2.0.0 || &gt;=2.0.0-dev || &gt;=2.1.0-dev || &gt;=2.2.0-dev || &gt;\</tspan>
<tspan x="10" y="618">=2.3.0-dev</tspan>
<tspan x="10" y="634">└── UNMET PEER DEPENDENCY typescript@&gt;=2.1.0 || &gt;=2.1.0-dev || &gt;=2.2.0-dev || &gt;=2.3.0-dev || &gt;=2\</tspan>
<tspan x="10" y="650">.4.0-dev</tspan>
</text>
</svg>
